<?xml version="1.0" encoding="utf-8"?>
<!-- Generator: Adobe Illustrator 22.0.0, SVG Export Plug-In . SVG Version: 6.00 Build 0)  -->
<svg version="1.1" id="Layer_1" xmlns="http://www.w3.org/2000/svg" xmlns:xlink="http://www.w3.org/1999/xlink" x="0px" y="0px"
	 viewBox="0 0 501.5 135.7" style="enable-background:new 0 0 501.5 135.7;" xml:space="preserve">
<style type="text/css">
	.st0{fill:#FFFFFF;}
</style>
<path class="st0" d="M70.4,57v45.8H47.8V60.6c0-7.3-5.1-12.6-11.8-12.6c-7.3,0-13.5,5.4-13.5,15.4v39.4H0V0h22.6v37.5
	c4.9-6,11.9-9.4,20.2-9.4C58.8,28.2,70.4,39.8,70.4,57z M301.8,104.5c-9.6,0-17.5-3.7-23.2-9.7v40.7h-22.3V29.9h22.3v8
	c5.6-6.1,13.6-9.7,23.2-9.7c20,0,34.3,16.8,34.3,38.2C336.1,87.7,321.8,104.5,301.8,104.5z M296.2,48c-9.8,0-17.5,8-17.5,18.3
	c0,10.4,7.7,18.3,17.5,18.3c9.8,0,17.5-7.9,17.5-18.3C313.6,56,306,48,296.2,48z M376.1,28.2c9.6,0,17.5,3.7,23.2,9.7v-8h22.3v73
	h-22.3v-8c-5.7,6.1-13.6,9.7-23.2,9.7c-20.1,0-34.3-16.8-34.3-38.2C341.8,44.9,356.1,28.2,376.1,28.2z M381.7,84.6
	c9.9,0,17.6-7.9,17.6-18.3c0-10.4-7.7-18.3-17.6-18.3c-9.8,0-17.4,8-17.4,18.3C364.3,76.8,371.9,84.6,381.7,84.6z M440,135.5
	l13.2-32.7l-26.1-73h23.6l13.5,44.2l13.7-44.2h23.6l-37.7,105.6H440z M120.9,28.2C98.3,28.2,81,44.8,81,66.3s17.3,38.2,39.9,38.2
	c22.6,0,39.8-16.7,39.8-38.2S143.4,28.2,120.9,28.2z M120.9,89.3c-12.5,0-22.2-9.9-22.2-23c0-2.4,0.3-4.6,0.9-6.7
	c1.5,3,4.6,5.1,8.1,5.1c5,0,9-4,9-9c0-4.5-3.4-8.3-7.7-9c3.4-2.2,7.5-3.4,11.9-3.4c12.5,0,22.2,9.9,22.2,23S133.4,89.3,120.9,89.3z
	 M205.5,28.2c-22.6,0-39.8,16.7-39.8,38.2s17.3,38.2,39.8,38.2c22.6,0,39.9-16.7,39.9-38.2S228.1,28.2,205.5,28.2z M205.5,89.3
	c-12.5,0-22.2-9.9-22.2-23s9.7-23,22.2-23c4.4,0,8.5,1.2,11.9,3.4c-4.4,0.6-7.7,4.4-7.7,9c0,5,4,9,9,9c3.6,0,6.7-2.1,8.1-5.1
	c0.6,2.1,0.9,4.3,0.9,6.7C227.8,79.4,218.1,89.3,205.5,89.3z M176.7,104.9c-0.9-4.7-6.7-8.2-13.8-8.2c-7.1,0-12.9,3.6-13.8,8.3l0,0
	l10.6,13.1c0.1,0.1,0.2,0.3,0.3,0.5l0,0l0,0c0.7,0.7,1.7,1.1,2.8,1.1c1.5,0,2.7-0.7,3.4-1.8L176.7,104.9L176.7,104.9z"/>
</svg>
